<?xml version="1.0" encoding="utf-8"?>
<!-- Generator: Adobe Illustrator 21.0.2, SVG Export Plug-In . SVG Version: 6.00 Build 0)  -->
<svg version="1.1" id="Слой_1" xmlns="http://www.w3.org/2000/svg" xmlns:xlink="http://www.w3.org/1999/xlink" x="0px" y="0px"
	 viewBox="0 0 340.2 340.2" style="enable-background:new 0 0 340.2 340.2;" xml:space="preserve">
<style type="text/css">
	.st0{fill:#5A5A5C;stroke:#5A5A5C;stroke-width:6;stroke-linecap:square;stroke-miterlimit:10;}
	.st1{fill:#5A5A5C;stroke:#5A5A5C;stroke-width:0.5;stroke-linecap:square;stroke-miterlimit:10;}
</style>
<g>
	<g>
		<line class="st0" x1="311.8" y1="311.8" x2="311.8" y2="28.3"/>
		<line class="st0" x1="28.3" y1="311.8" x2="28.3" y2="28.3"/>
		<line class="st0" x1="28.3" y1="28.3" x2="311.8" y2="28.3"/>
		<line class="st0" x1="28.3" y1="311.8" x2="311.8" y2="311.8"/>
	</g>
	<g>
		<path class="st1" d="M152,267.1h-2.8c-17.2,0-33.2-4.5-48-13.5c-14.8-9-26.5-21-35.1-35.9c-8.6-14.9-12.9-30.8-12.9-47.6
			c0-26.5,9.6-49.3,28.8-68.4c19.2-19.1,42.1-28.6,68.7-28.6c17.8,0,34.8,4.7,50.8,14v9.2c-15.7-10.7-32.6-16-50.8-16
			c-24.5,0-45.5,8.8-63,26.4c-17.5,17.6-26.3,38.7-26.3,63.2c0,24.6,8.8,45.7,26.3,63.4c17.5,17.7,38.5,26.5,63,26.5
			c18.2,0,35.1-5.3,50.8-16v9.2C186.3,262.4,169.8,267.1,152,267.1z"/>
		<path class="st1" d="M216.2,76.8h8.2c17.3,0,32.1,6,44.3,17.9c12.2,11.9,18.2,26,18.2,42.1c0,16.2-6.3,30.1-18.9,41.8
			c-12.6,11.7-26.5,17.5-41.6,17.5h-2v68.2h-8.2V76.8z M224.5,189.1h2c14,0,26.2-5.2,36.6-15.5c10.4-10.3,15.6-22.6,15.6-36.8
			c0-14.2-5.3-26.5-15.9-37c-10.6-10.5-22.7-15.8-36.4-15.8h-2V189.1z"/>
	</g>
</g>
</svg>
