<?xml version="1.0" encoding="utf-8"?>
<!-- Generator: Adobe Illustrator 21.0.2, SVG Export Plug-In . SVG Version: 6.00 Build 0)  -->
<svg version="1.1" id="Слой_1" xmlns="http://www.w3.org/2000/svg" xmlns:xlink="http://www.w3.org/1999/xlink" x="0px" y="0px"
	 viewBox="0 0 1615.7 340.2" style="enable-background:new 0 0 1615.7 340.2;" xml:space="preserve">
<style type="text/css">
	.st0{fill:#FFFFFF;stroke:#FFFFFF;stroke-width:2;}
	.st1{fill:#FFFFFF;stroke:#FFFFFF;stroke-width:6;stroke-linecap:square;stroke-miterlimit:10;}
</style>
<g>
	<g>
		<path class="st0" d="M186.7,249.6h-2.2c-13.7,0-26.5-3.6-38.4-10.8c-11.9-7.2-21.2-16.8-28.1-28.7c-6.9-11.9-10.3-24.6-10.3-38.1
			c0-21.2,7.7-39.4,23-54.7c15.3-15.3,33.7-22.9,55-22.9c14.3,0,27.8,3.7,40.6,11.2v7.4c-12.5-8.5-26.1-12.8-40.6-12.8
			c-19.6,0-36.4,7-50.4,21.1c-14,14.1-21,30.9-21,50.6c0,19.7,7,36.6,21,50.7c14,14.1,30.8,21.2,50.4,21.2
			c14.5,0,28.1-4.3,40.6-12.8v7.4C214.1,245.8,200.9,249.6,186.7,249.6z"/>
		<path class="st0" d="M270,226.6c-15.1-15.6-22.7-33.8-22.7-54.7c0-20.9,7.7-38.9,23-54.2c15.3-15.3,33.7-22.9,55.2-22.9
			c21.5,0,39.8,7.6,55,22.8c15.2,15.2,22.8,33.3,22.8,54.3s-7.5,39.3-22.6,54.8c-15.1,15.5-33.1,23.3-54,23.3h-3
			C303,250,285.1,242.2,270,226.6z M396.7,172.3c0-19.7-7-36.5-20.9-50.6c-13.9-14.1-30.7-21.1-50.4-21.1c-19.7,0-36.5,7-50.5,21.1
			c-14,14.1-21,30.9-21,50.6c0,19.7,7,36.6,21,50.7c14,14.1,30.8,21.2,50.4,21.2s36.4-7.1,50.4-21.2
			C389.7,208.8,396.7,191.9,396.7,172.3z"/>
		<path class="st0" d="M581.1,97.4v150h-6.6V105.2l-70.8,145l-70.4-145v142.2h-6v-150h9.6l67.4,138.4l67.6-138.4H581.1z"/>
		<path class="st0" d="M610.9,97.4h6.6c13.9,0,25.7,4.8,35.4,14.3c9.7,9.5,14.6,20.8,14.6,33.7c0,12.9-5,24.1-15.1,33.4
			c-10.1,9.3-21.2,14-33.3,14h-1.6v54.6h-6.6V97.4z M617.5,187.2h1.6c11.2,0,21-4.1,29.3-12.4c8.3-8.3,12.5-18.1,12.5-29.4
			c0-11.3-4.2-21.2-12.7-29.6c-8.5-8.4-18.2-12.6-29.1-12.6h-1.6V187.2z"/>
		<path class="st0" d="M734.9,250.2h-2c-12.3,0-22.6-4.3-31.1-12.8c-8.5-8.5-12.7-19.3-12.7-32.2V97.4h6.6V205
			c0,11.3,3.7,20.7,11,28.2c7.3,7.5,16.4,11.2,27.2,11.2c10.8,0,19.8-3.7,27.1-11.1c7.3-7.4,10.9-16.8,10.9-28.3V97.4h6.6v107.4
			c0,13.1-4.2,23.9-12.7,32.5C757.3,245.9,747,250.2,734.9,250.2z"/>
		<path class="st0" d="M808.3,97.4h6.6c13.9,0,25.7,4.8,35.4,14.3c9.7,9.5,14.6,20.8,14.6,33.7c0,12.9-5,24.1-15.1,33.4
			c-10.1,9.3-21.2,14-33.3,14h-1.6v54.6h-6.6V97.4z M814.9,187.2h1.6c11.2,0,21-4.1,29.3-12.4c8.3-8.3,12.5-18.1,12.5-29.4
			c0-11.3-4.2-21.2-12.7-29.6c-8.5-8.4-18.2-12.6-29.1-12.6h-1.6V187.2z"/>
		<path class="st0" d="M886.5,97.4h8.6c12.9,0,24.3,4.8,34.1,14.3c9.8,9.5,14.7,20.7,14.7,33.6c0,12.9-5,24-15,33.5
			c-10,9.5-20.7,14.2-32.2,14.2h-1.4l51.6,54.4h-8.6l-45.4-47.6v47.6h-6.4V97.4z M892.9,187.2h3.6c10.8,0,20.3-4.1,28.6-12.4
			c8.3-8.3,12.4-18.1,12.4-29.4c0-11.3-4.3-21.2-12.8-29.6c-8.5-8.4-18.3-12.6-29.2-12.6h-2.6V187.2z"/>
		<path class="st0" d="M984.6,226.6c-15.1-15.6-22.7-33.8-22.7-54.7c0-20.9,7.7-38.9,23-54.2c15.3-15.3,33.7-22.9,55.2-22.9
			c21.5,0,39.8,7.6,55,22.8c15.2,15.2,22.8,33.3,22.8,54.3s-7.5,39.3-22.6,54.8c-15.1,15.5-33.1,23.3-54,23.3h-3
			C1017.6,250,999.7,242.2,984.6,226.6z M1111.3,172.3c0-19.7-7-36.5-20.9-50.6c-13.9-14.1-30.7-21.1-50.4-21.1
			c-19.7,0-36.5,7-50.5,21.1c-14,14.1-21,30.9-21,50.6c0,19.7,7,36.6,21,50.7c14,14.1,30.8,21.2,50.4,21.2
			c19.6,0,36.4-7.1,50.4-21.2C1104.3,208.8,1111.3,191.9,1111.3,172.3z"/>
		<path class="st0" d="M1161.7,103.2v-5.8h43.6v104c0,14.5-4,26.3-11.9,35.4c-7.9,9.1-18.3,13.6-31.1,13.6h-2
			c-10.7,0-20.5-3.8-29.4-11.4v-8.2c8.4,9.2,18.5,13.8,30.2,13.8c11.7,0,20.9-4,27.6-11.9c6.7-7.9,10-18.1,10-30.5v-99H1161.7z"/>
		<path class="st0" d="M1235.3,97.4h53.8v5.8h-47.2v81.6h39.4v5.8h-39.4v51h47.2v5.8h-53.8V97.4z"/>
		<path class="st0" d="M1382.1,249.6h-2.2c-13.7,0-26.5-3.6-38.4-10.8c-11.9-7.2-21.2-16.8-28.1-28.7c-6.9-11.9-10.3-24.6-10.3-38.1
			c0-21.2,7.7-39.4,23-54.7c15.3-15.3,33.7-22.9,55-22.9c14.3,0,27.8,3.7,40.6,11.2v7.4c-12.5-8.5-26.1-12.8-40.6-12.8
			c-19.6,0-36.4,7-50.4,21.1c-14,14.1-21,30.9-21,50.6c0,19.7,7,36.6,21,50.7c14,14.1,30.8,21.2,50.4,21.2
			c14.5,0,28.1-4.3,40.6-12.8v7.4C1409.5,245.8,1396.3,249.6,1382.1,249.6z"/>
		<path class="st0" d="M1513.1,97.4v5.8h-34.2v144.2h-6.6V103.2h-34.6v-5.8H1513.1z"/>
	</g>
	<g>
		<line class="st1" x1="28.3" y1="311.8" x2="28.3" y2="28.3"/>
		<line class="st1" x1="28.3" y1="311.8" x2="1587.4" y2="311.8"/>
		<line class="st1" x1="1587.4" y1="311.8" x2="1587.4" y2="28.3"/>
		<line class="st1" x1="28.3" y1="28.3" x2="1587.4" y2="28.3"/>
	</g>
</g>
</svg>
